<?xml version="1.0" encoding="utf-8"?>
<!-- Generator: Adobe Illustrator 16.0.0, SVG Export Plug-In . SVG Version: 6.00 Build 0)  -->
<!DOCTYPE svg PUBLIC "-//W3C//DTD SVG 1.1//EN" "http://www.w3.org/Graphics/SVG/1.1/DTD/svg11.dtd">
<svg version="1.1" id="Layer_1" xmlns="http://www.w3.org/2000/svg" xmlns:xlink="http://www.w3.org/1999/xlink" x="0px" y="0px"
	 width="624.095px" height="190.904px" viewBox="0 0 624.095 190.904" enable-background="new 0 0 624.095 190.904"
	 xml:space="preserve">
<g>
	<path fill="#D9230F" d="M488.028,67.058c-1.541-9.701-6.175-18.079-12.35-24.249c-7.268-7.499-16.972-11.903-27.332-12.122h-0.22
		c-6.615,0-13.673,1.759-19.846,5.946c-3.964,2.43-7.709,5.513-11.018,9.706c-3.304-4.193-7.058-7.276-10.8-9.706
		c-6.396-4.188-13.229-5.946-20.058-5.946h-0.227c-10.14,0.219-20.061,4.623-27.332,12.122c-6.176,6.17-10.804,14.548-12.563,24.249
		c-1.541,9.476-0.448,20.281,4.405,31.744c8.158,19.396,27.774,40.782,63.931,60.396l2.644,1.55l2.42-1.55
		c36.38-19.613,55.775-41,64.15-60.396C488.689,87.339,489.788,76.533,488.028,67.058z"/>
	<path fill="#1A1A1A" d="M0,11.793c0-1.525,0.411-2.787,1.232-3.784c0.821-0.997,2.083-1.497,3.785-1.497h15.402
		c1.174,0,2.273,0.5,3.301,1.497c1.026,0.998,1.541,2.259,1.541,3.784v134.4c0,1.761-0.484,3.08-1.453,3.961
		c-0.968,0.88-2.274,1.319-3.917,1.319H5.193c-1.878,0-3.212-0.439-4.004-1.319C0.397,149.273,0,147.954,0,146.193V11.793z"/>
	<path fill="#1A1A1A" d="M49.993,6.093c0-3.533,1.729-5.3,5.193-5.3h14.787c1.641,0,2.962,0.442,3.961,1.326
		c0.997,0.883,1.496,2.208,1.496,3.975v13.162c0,1.354-0.47,2.635-1.409,3.842c-0.94,1.208-2.259,1.812-3.96,1.812H55.273
		c-3.521,0-5.281-1.884-5.281-5.653V6.093z M49.993,45.063c0-1.525,0.439-2.801,1.321-3.828c0.879-1.026,2.169-1.541,3.872-1.541
		h14.61c0.645,0,1.305,0.131,1.98,0.396c0.674,0.264,1.277,0.646,1.804,1.145c0.528,0.499,0.968,1.07,1.321,1.716
		c0.352,0.646,0.528,1.35,0.528,2.112v101.13c0,3.52-1.849,5.28-5.546,5.28h-14.61c-3.521,0-5.281-1.761-5.281-5.28V45.063z"/>
	<path fill="#1A1A1A" d="M111.603,40.047c0-5.222,0.792-10.254,2.376-15.094c1.583-4.842,3.901-9.109,6.953-12.806
		c3.05-3.697,6.791-6.645,11.222-8.846c4.429-2.2,9.461-3.3,15.095-3.3h0.879c1.701,0,3.021,0.515,3.96,1.541
		c0.938,1.027,1.408,2.42,1.408,4.181v12.146c0,1.703-0.455,3.141-1.364,4.313c-0.91,1.174-2.156,1.761-3.741,1.761
		c-0.879,0-1.996,0.22-3.344,0.659c-1.351,0.44-2.642,1.131-3.874,2.069c-1.232,0.939-2.287,2.142-3.168,3.608
		c-0.879,1.467-1.32,3.199-1.32,5.193v14.258h12.763c1.701,0,3.021,0.44,3.961,1.321c0.937,0.879,1.408,2.347,1.408,4.4v10.826
		c0,2.054-0.471,3.594-1.408,4.62c-0.94,1.028-2.26,1.541-3.961,1.541h-12.763v73.315c0,1.88-0.616,3.302-1.849,4.27
		c-1.232,0.968-2.582,1.452-4.048,1.452h-13.642c-1.761,0-3.125-0.542-4.093-1.628c-0.968-1.085-1.452-2.449-1.452-4.094V72.437
		h-8.713c-1.703,0-3.082-0.513-4.137-1.541c-1.056-1.026-1.584-2.566-1.584-4.62V55.449c0-2.053,0.528-3.521,1.584-4.4
		c1.056-0.88,2.435-1.321,4.137-1.321h8.713V40.047z"/>
	<path fill="#1A1A1A" d="M262.196,139.151c-5.164,4.4-10.812,7.863-16.942,10.386c-6.132,2.522-12.866,3.786-20.2,3.786
		c-7.921,0-15.433-1.497-22.532-4.489c-7.101-2.993-13.321-7.099-18.659-12.322c-5.34-5.223-9.58-11.339-12.718-18.352
		c-3.14-7.011-4.709-14.566-4.709-22.664c0-5.222,0.645-10.267,1.937-15.138c1.29-4.87,3.124-9.432,5.5-13.687
		c2.377-4.254,5.266-8.156,8.669-11.706c3.403-3.55,7.203-6.586,11.398-9.109c4.194-2.522,8.742-4.474,13.642-5.853
		c4.899-1.379,10.079-2.069,15.535-2.069c4.458,0,8.859,0.544,13.202,1.629c4.342,1.086,8.464,2.627,12.367,4.621
		c3.901,1.995,7.553,4.416,10.957,7.26c3.403,2.847,6.395,6.06,8.978,9.638c3.521,4.929,6.102,10.241,7.745,15.931
		c1.642,5.691,2.465,12,2.465,18.923c0,1.702-0.074,3.125-0.221,4.268c-0.147,1.146-0.514,2.069-1.1,2.773
		c-0.588,0.704-1.467,1.219-2.641,1.541c-1.174,0.322-2.816,0.483-4.929,0.483h-78.07c0.763,4.226,2.215,7.966,4.358,11.222
		c2.141,3.257,4.678,6.016,7.613,8.274c2.933,2.259,6.13,3.961,9.593,5.104c3.461,1.144,6.923,1.716,10.386,1.716
		c2.64,0,5.178-0.264,7.613-0.792c2.434-0.528,4.709-1.232,6.82-2.112c2.113-0.88,4.063-1.893,5.854-3.037
		c1.789-1.144,3.358-2.332,4.708-3.563c0-0.058,0.029-0.089,0.089-0.089c0.704-0.645,1.378-1.158,2.025-1.54
		c0.644-0.381,1.319-0.572,2.023-0.572c0.528,0,1.129,0.177,1.804,0.528c0.674,0.353,1.334,0.939,1.98,1.76
		c1.585,1.937,2.933,3.552,4.049,4.841c1.113,1.291,2.024,2.377,2.728,3.257c0.705,0.881,1.217,1.645,1.54,2.288
		c0.322,0.646,0.485,1.292,0.485,1.937C265.541,135.866,264.425,137.51,262.196,139.151z M223.117,59.762
		c-3.462,0-6.837,0.631-10.121,1.893c-3.288,1.262-6.294,2.979-9.023,5.149c-2.729,2.171-5.104,4.724-7.129,7.657
		c-2.024,2.935-3.507,6.103-4.445,9.505h62.314c-0.939-3.578-2.362-6.85-4.268-9.813c-1.908-2.962-4.211-5.515-6.909-7.657
		c-2.7-2.141-5.781-3.798-9.242-4.973C230.833,60.349,227.107,59.762,223.117,59.762z"/>
	<path fill="#1A1A1A" d="M299.778,11.793c0-1.525,0.41-2.787,1.232-3.784c0.82-0.997,2.082-1.497,3.784-1.497h15.403
		c1.173,0,2.273,0.5,3.3,1.497c1.026,0.998,1.541,2.259,1.541,3.784v134.4c0,1.761-0.484,3.08-1.452,3.961
		c-0.968,0.88-2.275,1.319-3.917,1.319h-14.698c-1.879,0-3.213-0.439-4.004-1.319c-0.792-0.881-1.189-2.2-1.189-3.961V11.793z"/>
	<path fill="#1A1A1A" d="M599.099,143.552c0.293-1.055,0.44-2.301,0.44-3.739s0.057-2.772,0.176-4.005
		c-2.112,2.23-4.356,4.312-6.733,6.248c-2.376,1.938-4.944,3.625-7.701,5.062c-2.759,1.438-5.752,2.567-8.978,3.389
		c-3.228,0.823-6.72,1.231-10.474,1.231c-5.281,0-10.342-0.644-15.184-1.936c-4.84-1.29-9.345-3.138-13.51-5.544
		c-4.167-2.407-7.951-5.311-11.354-8.714s-6.322-7.188-8.757-11.354c-2.436-4.165-4.313-8.684-5.633-13.555
		c-1.32-4.869-1.98-9.975-1.98-15.314c0-5.281,0.66-10.386,1.98-15.315c1.319-4.929,3.197-9.519,5.633-13.774
		c2.435-4.253,5.354-8.142,8.757-11.662c3.403-3.521,7.188-6.527,11.354-9.022c4.165-2.493,8.67-4.429,13.51-5.808
		c4.842-1.379,9.902-2.069,15.184-2.069c3.754,0,7.29,0.396,10.605,1.188c3.314,0.792,6.425,1.922,9.329,3.389
		c2.905,1.467,5.618,3.199,8.142,5.193c2.522,1.995,4.841,4.167,6.954,6.513c0.233-1.584,0.453-3.138,0.66-4.665
		c0.204-1.525,0.396-3.081,0.571-4.665c0.353-1.642,0.865-2.918,1.54-3.829c0.675-0.909,1.951-1.364,3.829-1.364
		c1.937,0,3.857,0.015,5.766,0.044c1.905,0.03,3.828,0.043,5.765,0.043c1.349,0,2.537,0.47,3.564,1.409
		c1.026,0.939,1.54,2.171,1.54,3.696v0.704v89.072c0,9.623-1.555,17.969-4.665,25.04c-3.11,7.069-7.335,12.938-12.674,17.603
		c-5.341,4.666-11.545,8.141-18.615,10.43c-7.071,2.289-14.566,3.433-22.487,3.433c-3.345,0-6.705-0.279-10.078-0.835
		c-3.375-0.559-6.676-1.352-9.901-2.377c-3.229-1.028-6.309-2.288-9.242-3.784c-2.935-1.496-5.604-3.184-8.009-5.062
		c-0.764-0.471-1.396-1.041-1.893-1.717c-0.5-0.675-0.749-1.512-0.749-2.509c0-0.47,0.059-0.954,0.177-1.452
		c0.117-0.499,0.41-1.069,0.881-1.716l6.601-9.594c0.645-0.764,1.231-1.334,1.761-1.716c0.527-0.382,1.113-0.572,1.76-0.572
		c0.469,0.058,1.012,0.177,1.628,0.353c0.616,0.175,1.246,0.528,1.893,1.057c1.408,1.232,3.153,2.273,5.236,3.124
		s4.254,1.554,6.514,2.111c2.259,0.558,4.518,0.954,6.777,1.189c2.259,0.233,4.269,0.352,6.029,0.352
		c4.342,0,8.493-0.558,12.454-1.672c3.96-1.115,7.481-2.729,10.562-4.841c3.081-2.113,5.603-4.664,7.569-7.657
		C597.588,150.594,598.746,147.249,599.099,143.552z M534.143,95.32c0,4.695,0.822,9.14,2.465,13.334
		c1.643,4.196,3.931,7.878,6.866,11.046c2.933,3.168,6.381,5.677,10.342,7.526c3.96,1.848,8.287,2.771,12.981,2.771
		c4.635,0,9.006-0.909,13.114-2.729c4.106-1.817,7.687-4.269,10.738-7.35c3.05-3.079,5.471-6.674,7.261-10.781
		c1.789-4.106,2.743-8.45,2.861-13.026v-1.408c-0.118-4.578-1.072-8.918-2.861-13.027c-1.79-4.106-4.211-7.714-7.261-10.826
		c-3.052-3.109-6.632-5.574-10.738-7.393c-4.108-1.818-8.479-2.729-13.114-2.729c-4.694,0-9.021,0.924-12.981,2.772
		c-3.961,1.849-7.409,4.357-10.342,7.526c-2.936,3.168-5.224,6.852-6.866,11.046C534.965,86.27,534.143,90.686,534.143,95.32z"/>
</g>
</svg>
