<?xml version="1.0" encoding="utf-8"?>
<!-- Generator: Adobe Illustrator 16.0.0, SVG Export Plug-In . SVG Version: 6.00 Build 0)  -->
<!DOCTYPE svg PUBLIC "-//W3C//DTD SVG 1.1//EN" "http://www.w3.org/Graphics/SVG/1.1/DTD/svg11.dtd">
<svg version="1.1" id="Layer_1" xmlns="http://www.w3.org/2000/svg" xmlns:xlink="http://www.w3.org/1999/xlink" x="0px" y="0px"
	 width="143.183px" height="130.061px" viewBox="0 0 143.183 130.061" enable-background="new 0 0 143.183 130.061"
	 xml:space="preserve">
<path fill="#D9230F" d="M142.395,36.371c-1.541-9.701-6.175-18.079-12.35-24.249C122.777,4.623,113.073,0.219,102.713,0h-0.22
	C95.878,0,88.82,1.759,82.647,5.946c-3.964,2.43-7.709,5.513-11.018,9.706c-3.304-4.193-7.058-7.276-10.8-9.706
	C54.435,1.759,47.601,0,40.772,0h-0.227c-10.14,0.219-20.061,4.623-27.332,12.122C7.038,18.292,2.41,26.67,0.65,36.371
	c-1.541,9.476-0.448,20.281,4.405,31.744c8.158,19.396,27.774,40.782,63.931,60.396l2.644,1.55l2.42-1.55
	c36.38-19.613,55.775-41,64.15-60.396C143.056,56.652,144.154,45.847,142.395,36.371z"/>
</svg>
